<svg width="156" height="55" viewBox="0 0 156 55" fill="none" xmlns="http://www.w3.org/2000/svg">
<path d="M72.272 44.288C71.336 44.288 70.7 44.048 70.364 43.568C70.028 43.064 69.86 42.44 69.86 41.696C69.86 41.024 69.956 40.268 70.148 39.428C70.364 38.396 70.748 37.172 71.3 35.756C71.876 34.34 72.512 32.864 73.208 31.328C73.928 29.768 74.636 28.28 75.332 26.864C76.052 25.448 76.676 24.236 77.204 23.228C76.892 23.516 76.568 23.816 76.232 24.128C75.92 24.44 75.596 24.788 75.26 25.172C73.868 26.732 72.596 28.22 71.444 29.636C70.316 31.028 69.224 32.408 68.168 33.776C67.136 35.12 66.068 36.5 64.964 37.916C64.364 38.708 63.884 39.308 63.524 39.716C63.188 40.1 62.876 40.364 62.588 40.508C62.324 40.628 61.988 40.688 61.58 40.688C60.98 40.688 60.296 40.508 59.528 40.148C59.864 39.74 60.092 38.864 60.212 37.52C60.356 36.176 60.428 34.64 60.428 32.912C60.428 31.16 60.368 29.348 60.248 27.476C60.128 25.604 59.948 23.948 59.708 22.508C59.564 22.748 59.3 23.276 58.916 24.092C58.556 24.908 58.112 25.916 57.584 27.116C57.08 28.292 56.54 29.576 55.964 30.968C55.388 32.336 54.824 33.716 54.272 35.108C53.744 36.476 53.264 37.772 52.832 38.996C52.424 40.22 52.112 41.276 51.896 42.164C51.68 43.052 51.608 43.664 51.68 44H48.368C48.896 42.656 49.496 41.168 50.168 39.536C50.864 37.88 51.584 36.188 52.328 34.46C53.072 32.732 53.804 31.052 54.524 29.42C55.268 27.788 55.94 26.3 56.54 24.956C57.164 23.588 57.68 22.46 58.088 21.572C58.496 20.684 58.76 20.132 58.88 19.916C57.824 19.892 56.744 20 55.64 20.24C54.536 20.456 53.504 20.768 52.544 21.176C51.584 21.584 50.768 22.052 50.096 22.58C49.448 23.108 49.028 23.66 48.836 24.236C48.812 24.308 48.764 24.344 48.692 24.344C48.5 24.344 48.404 24.188 48.404 23.876C48.404 23.828 48.404 23.78 48.404 23.732C48.428 23.66 48.452 23.588 48.476 23.516C48.692 22.892 48.956 22.34 49.268 21.86C49.604 21.38 49.928 20.972 50.24 20.636C51.032 19.82 51.92 19.328 52.904 19.16C53.888 18.968 54.932 18.872 56.036 18.872H59.528C60.056 18.872 60.572 18.872 61.076 18.872C61.58 18.872 62.024 19.004 62.408 19.268C62.792 19.508 63.044 19.988 63.164 20.708C63.26 21.212 63.344 21.98 63.416 23.012C63.512 24.02 63.584 25.148 63.632 26.396C63.704 27.644 63.764 28.88 63.812 30.104C63.86 31.328 63.896 32.384 63.92 33.272C63.92 33.32 63.92 33.464 63.92 33.704C63.944 33.92 63.956 34.196 63.956 34.532C63.956 34.844 63.944 35.204 63.92 35.612C63.92 35.996 63.896 36.368 63.848 36.728C64.352 36.104 64.976 35.336 65.72 34.424C66.488 33.488 67.316 32.48 68.204 31.4C69.092 30.296 69.992 29.192 70.904 28.088C71.816 26.984 72.692 25.928 73.532 24.92C74.372 23.912 75.104 23.036 75.728 22.292C76.376 21.524 76.856 20.948 77.168 20.564C77.72 19.94 78.416 19.508 79.256 19.268C80.096 19.004 80.936 18.872 81.776 18.872H84.008C83.504 19.256 82.952 19.904 82.352 20.816C81.752 21.728 81.164 22.712 80.588 23.768C80.036 24.824 79.544 25.784 79.112 26.648C78.488 27.944 77.852 29.348 77.204 30.86C76.556 32.372 75.98 33.872 75.476 35.36C74.972 36.848 74.6 38.228 74.36 39.5C74.288 39.884 74.252 40.292 74.252 40.724C74.252 41.252 74.336 41.72 74.504 42.128C74.696 42.512 75.032 42.704 75.512 42.704C75.896 42.704 76.364 42.548 76.916 42.236H76.952C77 42.236 77.036 42.284 77.06 42.38C77.084 42.452 77.072 42.512 77.024 42.56C76.568 43.04 75.872 43.448 74.936 43.784C74 44.12 73.112 44.288 72.272 44.288ZM89.0868 44.216C88.3428 44.216 87.8268 43.928 87.5388 43.352C87.2748 42.776 87.1428 42.068 87.1428 41.228C87.1428 40.46 87.2148 39.704 87.3588 38.96C87.4308 38.624 87.5028 38.288 87.5748 37.952C87.6708 37.592 87.7788 37.22 87.8988 36.836C87.4908 37.58 87.0588 38.3 86.6028 38.996C86.1708 39.692 85.7268 40.304 85.2708 40.832C84.5028 41.768 83.6868 42.548 82.8228 43.172C81.9828 43.796 81.1428 44.108 80.3028 44.108C79.6308 44.108 79.0548 43.868 78.5748 43.388C78.1188 42.884 77.8908 42.02 77.8908 40.796C77.8908 39.548 78.1068 38.264 78.5388 36.944C78.9708 35.624 79.5708 34.4 80.3388 33.272C81.1308 32.12 82.0548 31.196 83.1108 30.5C84.1908 29.804 85.3668 29.456 86.6388 29.456C87.0468 29.456 87.4908 29.516 87.9708 29.636C88.4508 29.756 88.8948 29.984 89.3028 30.32C89.7108 30.632 89.9868 31.076 90.1308 31.652C90.1548 31.604 90.1788 31.568 90.2028 31.544C90.2508 31.52 90.2868 31.496 90.3108 31.472C90.6468 30.944 91.0308 30.5 91.4628 30.14C91.8948 29.78 92.3748 29.6 92.9028 29.6C93.1668 29.6 93.5388 29.612 94.0188 29.636C94.4988 29.66 94.8468 29.66 95.0628 29.636C94.9428 29.732 94.7748 29.924 94.5588 30.212C94.3668 30.5 94.1868 30.8 94.0188 31.112C93.8508 31.4 93.7188 31.628 93.6228 31.796C92.9748 33.044 92.3868 34.28 91.8588 35.504C91.3308 36.728 90.9228 37.904 90.6348 39.032C90.5628 39.272 90.5148 39.5 90.4908 39.716C90.4668 39.908 90.4548 40.1 90.4548 40.292C90.4548 40.916 90.6588 41.228 91.0668 41.228C91.4508 41.228 91.9308 40.988 92.5068 40.508C93.3468 39.836 94.0788 38.996 94.7028 37.988C95.3508 36.98 95.9148 36.008 96.3948 35.072C96.4908 34.904 96.5748 34.82 96.6468 34.82C96.7908 34.82 96.8628 35.024 96.8628 35.432C96.8628 35.624 96.8268 35.84 96.7548 36.08C96.7068 36.32 96.6228 36.548 96.5028 36.764C96.1668 37.34 95.7228 38.048 95.1708 38.888C94.6428 39.728 94.0428 40.556 93.3708 41.372C92.6988 42.164 91.9908 42.836 91.2468 43.388C90.5268 43.94 89.8068 44.216 89.0868 44.216ZM81.9228 41.084C81.9948 41.108 82.1028 41.12 82.2468 41.12C82.7028 41.12 83.1948 40.928 83.7228 40.544C84.2508 40.16 84.7788 39.668 85.3068 39.068C85.8348 38.444 86.3028 37.82 86.7108 37.196C87.7668 35.516 88.5468 34.256 89.0508 33.416C89.5548 32.576 89.8428 32.096 89.9148 31.976C89.7948 31.568 89.5788 31.268 89.2668 31.076C88.9788 30.884 88.6308 30.788 88.2228 30.788C87.6948 30.788 87.1308 30.932 86.5308 31.22C85.9548 31.508 85.4628 31.856 85.0548 32.264C84.4308 32.888 83.8308 33.692 83.2548 34.676C82.7028 35.66 82.2468 36.632 81.8868 37.592C81.5508 38.552 81.3828 39.356 81.3828 40.004C81.3828 40.604 81.5628 40.964 81.9228 41.084ZM92.8544 44C93.1184 43.52 93.4184 42.908 93.7544 42.164C94.0664 41.42 94.3784 40.616 94.6904 39.752C95.0264 38.864 95.3264 38.012 95.5904 37.196C96.1904 35.348 96.8024 33.524 97.4264 31.724C98.0744 29.924 98.7224 28.364 99.3704 27.044C99.6344 26.468 99.9704 25.772 100.378 24.956C100.786 24.116 101.242 23.252 101.746 22.364C102.274 21.476 102.838 20.648 103.438 19.88C104.062 19.088 104.722 18.452 105.418 17.972C106.138 17.492 106.882 17.252 107.65 17.252C108.418 17.252 108.934 17.42 109.198 17.756C109.486 18.092 109.63 18.512 109.63 19.016C109.63 19.568 109.51 20.156 109.27 20.78C109.03 21.404 108.802 21.92 108.586 22.328C108.106 23.24 107.482 24.272 106.714 25.424C105.97 26.552 105.19 27.608 104.374 28.592C103.966 29.096 103.474 29.672 102.898 30.32C102.322 30.944 101.746 31.544 101.17 32.12C100.618 32.696 100.138 33.188 99.7304 33.596L99.0824 35.396C99.7064 34.58 100.366 33.848 101.062 33.2C101.758 32.552 102.514 31.904 103.33 31.256C103.93 30.776 104.554 30.416 105.202 30.176C105.874 29.936 106.486 29.816 107.038 29.816C107.446 29.816 107.818 29.876 108.154 29.996C108.514 30.116 108.778 30.308 108.946 30.572C109.066 30.74 109.15 30.92 109.198 31.112C109.246 31.304 109.27 31.496 109.27 31.688C109.27 32.072 109.198 32.444 109.054 32.804C108.742 33.548 108.286 34.184 107.686 34.712C107.11 35.216 106.45 35.6 105.706 35.864C105.442 35.96 105.094 36.068 104.662 36.188C104.23 36.308 103.846 36.392 103.51 36.44C103.558 36.776 103.594 37.112 103.618 37.448C103.666 37.784 103.714 38.12 103.762 38.456C103.906 39.272 104.086 39.968 104.302 40.544C104.542 41.12 104.914 41.408 105.418 41.408C105.874 41.408 106.486 41.108 107.254 40.508C107.806 40.076 108.286 39.584 108.694 39.032C109.174 38.408 109.63 37.748 110.062 37.052C110.494 36.332 110.866 35.672 111.178 35.072C111.274 34.904 111.358 34.82 111.43 34.82C111.574 34.82 111.646 35.012 111.646 35.396C111.646 35.612 111.61 35.852 111.538 36.116C111.49 36.356 111.394 36.596 111.25 36.836C110.914 37.412 110.518 38.036 110.062 38.708C109.63 39.38 109.174 40.04 108.694 40.688C108.43 41.048 108.094 41.444 107.686 41.876C107.278 42.308 106.846 42.704 106.39 43.064C105.982 43.376 105.49 43.664 104.914 43.928C104.338 44.168 103.774 44.288 103.222 44.288C102.79 44.288 102.382 44.192 101.998 44C101.638 43.808 101.338 43.484 101.098 43.028C100.834 42.524 100.63 41.924 100.486 41.228C100.342 40.532 100.27 39.836 100.27 39.14C100.27 38.756 100.282 38.384 100.306 38.024C100.354 37.64 100.426 37.292 100.522 36.98C100.642 36.572 100.762 36.296 100.882 36.152C101.002 36.008 101.158 35.936 101.35 35.936C102.046 35.912 102.73 35.816 103.402 35.648C104.074 35.456 104.638 35.156 105.094 34.748C105.646 34.268 105.922 33.728 105.922 33.128C105.922 32.864 105.826 32.636 105.634 32.444C105.466 32.228 105.178 32.12 104.77 32.12C104.218 32.12 103.678 32.3 103.15 32.66C102.622 33.02 102.118 33.488 101.638 34.064C101.158 34.64 100.714 35.24 100.306 35.864C99.8984 36.464 99.5504 37.016 99.2624 37.52C99.0464 37.88 98.8064 38.348 98.5424 38.924C98.2784 39.5 98.0024 40.1 97.7144 40.724C97.4264 41.348 97.1384 41.912 96.8504 42.416C96.5624 42.92 96.2864 43.292 96.0224 43.532C95.7104 43.844 95.3864 44 95.0504 44H92.8544ZM100.666 31.148C101.866 29.756 103.042 28.292 104.194 26.756C105.346 25.22 106.33 23.648 107.146 22.04C107.218 21.92 107.338 21.668 107.506 21.284C107.674 20.9 107.83 20.48 107.974 20.024C108.142 19.568 108.226 19.172 108.226 18.836C108.226 18.404 108.058 18.188 107.722 18.188C107.386 18.188 106.978 18.476 106.498 19.052C106.042 19.628 105.55 20.396 105.022 21.356C104.518 22.292 104.002 23.336 103.474 24.488C102.946 25.616 102.442 26.768 101.962 27.944C101.482 29.096 101.05 30.164 100.666 31.148ZM118.311 43.496C117.207 44.072 116.043 44.36 114.819 44.36C113.787 44.36 112.827 44.108 111.939 43.604C111.051 43.1 110.451 42.296 110.139 41.192C109.995 40.688 109.923 40.16 109.923 39.608C109.923 38.696 110.079 37.76 110.391 36.8C110.727 35.816 111.159 34.916 111.687 34.1C112.503 32.828 113.535 31.772 114.783 30.932C116.031 30.092 117.411 29.672 118.923 29.672C120.051 29.672 120.927 29.96 121.551 30.536C122.175 31.112 122.487 31.784 122.487 32.552C122.487 33.464 122.175 34.268 121.551 34.964C120.951 35.636 120.159 36.152 119.175 36.512C118.695 36.68 118.179 36.812 117.627 36.908C117.099 36.98 116.595 37.016 116.115 37.016C115.131 37.016 114.375 36.884 113.847 36.62C113.391 37.796 113.163 38.876 113.163 39.86C113.163 40.748 113.367 41.48 113.775 42.056C114.183 42.608 114.831 42.884 115.719 42.884C116.463 42.884 117.195 42.68 117.915 42.272C118.659 41.864 119.343 41.36 119.967 40.76C120.615 40.16 121.155 39.584 121.587 39.032C121.923 38.624 122.211 38.24 122.451 37.88C122.691 37.52 122.943 37.112 123.207 36.656C123.471 36.176 123.783 35.588 124.143 34.892C124.239 34.724 124.323 34.64 124.395 34.64C124.539 34.64 124.611 34.832 124.611 35.216C124.611 35.432 124.575 35.672 124.503 35.936C124.455 36.176 124.359 36.428 124.215 36.692C123.879 37.292 123.471 37.952 122.991 38.672C122.535 39.368 122.067 40.04 121.587 40.688C121.155 41.264 120.663 41.792 120.111 42.272C119.559 42.752 118.959 43.16 118.311 43.496ZM115.035 35.828C115.155 35.9 115.287 35.948 115.431 35.972C115.575 35.996 115.719 36.008 115.863 36.008C116.343 36.008 116.823 35.9 117.303 35.684C117.783 35.444 118.191 35.204 118.527 34.964C119.079 34.58 119.547 34.124 119.931 33.596C120.315 33.068 120.531 32.468 120.579 31.796C120.603 31.508 120.531 31.268 120.363 31.076C120.219 30.86 119.955 30.752 119.571 30.752C119.379 30.752 119.139 30.788 118.851 30.86C118.467 30.956 118.083 31.136 117.699 31.4C117.315 31.664 116.943 31.976 116.583 32.336C116.463 32.456 116.247 32.696 115.935 33.056C115.647 33.392 115.371 33.776 115.107 34.208C114.843 34.616 114.711 34.976 114.711 35.288C114.711 35.552 114.819 35.732 115.035 35.828ZM124.59 44.216C123.966 44.216 123.45 43.928 123.042 43.352C122.658 42.752 122.514 41.828 122.61 40.58C122.658 40.052 122.778 39.38 122.97 38.564C123.162 37.748 123.414 36.872 123.726 35.936C124.062 34.976 124.434 34.052 124.842 33.164C125.25 32.252 125.694 31.448 126.174 30.752C126.438 30.392 126.702 30.176 126.966 30.104C127.254 30.008 127.77 29.96 128.514 29.96H130.242C129.834 30.536 129.402 31.256 128.946 32.12C128.49 32.984 128.07 33.848 127.686 34.712C127.302 35.552 127.002 36.26 126.786 36.836C126.738 37.004 126.642 37.304 126.498 37.736C126.354 38.144 126.222 38.6 126.102 39.104C125.982 39.608 125.922 40.076 125.922 40.508C125.922 40.892 125.994 41.216 126.138 41.48C126.282 41.744 126.546 41.876 126.93 41.876C127.386 41.852 127.878 41.564 128.406 41.012C128.934 40.46 129.462 39.752 129.99 38.888C130.518 38.024 131.034 37.124 131.538 36.188C132.066 35.228 132.534 34.34 132.942 33.524C133.374 32.684 133.734 32.036 134.022 31.58C134.382 31.028 134.766 30.548 135.174 30.14C135.582 29.708 136.05 29.492 136.578 29.492C136.77 29.492 137.022 29.504 137.334 29.528C137.67 29.528 137.994 29.528 138.306 29.528C138.642 29.528 138.87 29.516 138.99 29.492C138.846 29.588 138.678 29.78 138.486 30.068C138.294 30.356 138.102 30.656 137.91 30.968C137.742 31.256 137.61 31.496 137.514 31.688C136.89 32.936 136.278 34.196 135.678 35.468C135.102 36.716 134.67 37.904 134.382 39.032C134.262 39.464 134.202 39.836 134.202 40.148C134.202 40.868 134.442 41.228 134.922 41.228C135.258 41.228 135.738 40.988 136.362 40.508C136.842 40.124 137.31 39.632 137.766 39.032C138.27 38.408 138.738 37.736 139.17 37.016C139.602 36.296 139.974 35.636 140.286 35.036C140.382 34.868 140.466 34.784 140.538 34.784C140.682 34.784 140.754 34.976 140.754 35.36C140.754 35.552 140.718 35.78 140.646 36.044C140.598 36.284 140.502 36.524 140.358 36.764C140.022 37.34 139.626 37.976 139.17 38.672C138.714 39.344 138.246 40.016 137.766 40.688C137.43 41.12 136.986 41.612 136.434 42.164C135.882 42.716 135.294 43.196 134.67 43.604C134.07 44.012 133.482 44.216 132.906 44.216C132.57 44.216 132.258 44.144 131.97 44C131.682 43.88 131.442 43.628 131.25 43.244C131.01 42.74 130.89 42.056 130.89 41.192C130.89 40.928 130.902 40.652 130.926 40.364C130.95 40.052 130.986 39.74 131.034 39.428C130.674 39.932 130.29 40.4 129.882 40.832C129.498 41.264 129.102 41.696 128.694 42.128C127.782 43.04 127.002 43.616 126.354 43.856C125.73 44.096 125.142 44.216 124.59 44.216ZM133.381 52.928C133.501 52.76 133.657 52.46 133.849 52.028C134.041 51.62 134.245 51.176 134.461 50.696C134.677 50.216 134.857 49.808 135.001 49.472C135.409 48.464 135.877 47.228 136.405 45.764C136.933 44.324 137.473 42.812 138.025 41.228C138.577 39.644 139.105 38.132 139.609 36.692C140.113 35.252 140.557 34.064 140.941 33.128C141.301 32.264 141.613 31.58 141.877 31.076C142.141 30.548 142.513 30.176 142.993 29.96C143.497 29.72 144.253 29.6 145.261 29.6H146.341C146.005 29.84 145.561 30.392 145.009 31.256C144.481 32.096 143.977 32.984 143.497 33.92C143.665 33.704 143.821 33.5 143.965 33.308C144.109 33.092 144.265 32.9 144.433 32.732C145.201 31.796 146.017 31.016 146.881 30.392C147.745 29.768 148.585 29.456 149.401 29.456C150.073 29.456 150.637 29.708 151.093 30.212C151.573 30.716 151.813 31.568 151.813 32.768C151.813 33.872 151.597 34.988 151.165 36.116C150.757 37.22 150.205 38.276 149.509 39.284C148.813 40.268 148.045 41.144 147.205 41.912C147.037 42.08 146.845 42.248 146.629 42.416C146.437 42.56 146.233 42.704 146.017 42.848C146.785 42.92 147.541 42.74 148.285 42.308C149.053 41.876 149.749 41.348 150.373 40.724C151.021 40.1 151.549 39.536 151.957 39.032C152.437 38.408 152.917 37.688 153.397 36.872C153.901 36.056 154.309 35.336 154.621 34.712C154.717 34.544 154.801 34.46 154.873 34.46C155.065 34.46 155.161 34.676 155.161 35.108C155.161 35.492 155.041 35.888 154.801 36.296C154.609 36.656 154.345 37.112 154.009 37.664C153.673 38.216 153.373 38.696 153.109 39.104C152.005 40.712 150.721 42.032 149.257 43.064C147.793 44.096 146.029 44.612 143.965 44.612C143.797 44.612 143.617 44.612 143.425 44.612C143.257 44.612 143.077 44.6 142.885 44.576C142.309 44.528 141.769 44.384 141.265 44.144C140.761 43.928 140.425 43.508 140.257 42.884L138.241 49.184C137.977 50.024 137.737 50.72 137.521 51.272C137.281 51.824 136.993 52.232 136.657 52.496C136.297 52.784 135.781 52.928 135.109 52.928H133.381ZM142.057 43.064C142.465 43.064 142.933 42.86 143.461 42.452C143.989 42.02 144.505 41.492 145.009 40.868C145.537 40.22 145.981 39.596 146.341 38.996C146.893 38.036 147.361 37.052 147.745 36.044C148.129 35.036 148.321 34.208 148.321 33.56C148.321 32.84 148.033 32.48 147.457 32.48C146.953 32.48 146.401 32.72 145.801 33.2C145.369 33.536 144.877 34.028 144.325 34.676C143.797 35.324 143.269 36.056 142.741 36.872C142.237 37.664 141.817 38.48 141.481 39.32C141.169 40.136 141.013 40.88 141.013 41.552C141.013 41.672 141.013 41.792 141.013 41.912C141.037 42.008 141.061 42.116 141.085 42.236C141.205 42.788 141.529 43.064 142.057 43.064Z" fill="black"/>
<path d="M3.384 35V9.8H8.064V31.04H21.24V35H3.384ZM35.4108 15.56C36.9468 15.56 38.3148 15.86 39.5148 16.46C40.7388 17.06 41.6988 17.984 42.3948 19.232C43.0908 20.456 43.4388 22.04 43.4388 23.984V35H38.9388V24.56C38.9388 22.856 38.5308 21.584 37.7148 20.744C36.9228 19.904 35.8068 19.484 34.3668 19.484C33.3108 19.484 32.3748 19.7 31.5588 20.132C30.7428 20.564 30.1068 21.212 29.6508 22.076C29.2188 22.916 29.0028 23.984 29.0028 25.28V35H24.5028V8.288H29.0028V20.96L28.0308 19.376C28.7028 18.152 29.6748 17.216 30.9468 16.568C32.2428 15.896 33.7308 15.56 35.4108 15.56Z" fill="black"/>
</svg>
