<svg width="191" height="35" viewBox="0 0 191 35" fill="none" xmlns="http://www.w3.org/2000/svg">
<path d="M24.272 27.288C23.336 27.288 22.7 27.048 22.364 26.568C22.028 26.064 21.86 25.44 21.86 24.696C21.86 24.024 21.956 23.268 22.148 22.428C22.364 21.396 22.748 20.172 23.3 18.756C23.876 17.34 24.512 15.864 25.208 14.328C25.928 12.768 26.636 11.28 27.332 9.864C28.052 8.448 28.676 7.236 29.204 6.228C28.892 6.516 28.568 6.816 28.232 7.128C27.92 7.44 27.596 7.788 27.26 8.172C25.868 9.732 24.596 11.22 23.444 12.636C22.316 14.028 21.224 15.408 20.168 16.776C19.136 18.12 18.068 19.5 16.964 20.916C16.364 21.708 15.884 22.308 15.524 22.716C15.188 23.1 14.876 23.364 14.588 23.508C14.324 23.628 13.988 23.688 13.58 23.688C12.98 23.688 12.296 23.508 11.528 23.148C11.864 22.74 12.092 21.864 12.212 20.52C12.356 19.176 12.428 17.64 12.428 15.912C12.428 14.16 12.368 12.348 12.248 10.476C12.128 8.604 11.948 6.948 11.708 5.508C11.564 5.748 11.3 6.276 10.916 7.092C10.556 7.908 10.112 8.916 9.584 10.116C9.08 11.292 8.54 12.576 7.964 13.968C7.388 15.336 6.824 16.716 6.272 18.108C5.744 19.476 5.264 20.772 4.832 21.996C4.424 23.22 4.112 24.276 3.896 25.164C3.68 26.052 3.608 26.664 3.68 27H0.368C0.896 25.656 1.496 24.168 2.168 22.536C2.864 20.88 3.584 19.188 4.328 17.46C5.072 15.732 5.804 14.052 6.524 12.42C7.268 10.788 7.94 9.3 8.54 7.956C9.164 6.588 9.68 5.46 10.088 4.572C10.496 3.684 10.76 3.132 10.88 2.916C9.824 2.892 8.744 3 7.64 3.24C6.536 3.456 5.504 3.768 4.544 4.176C3.584 4.584 2.768 5.052 2.096 5.58C1.448 6.108 1.028 6.66 0.836 7.236C0.812 7.308 0.764 7.344 0.692 7.344C0.5 7.344 0.404 7.188 0.404 6.876C0.404 6.828 0.404 6.78 0.404 6.732C0.428 6.66 0.452 6.588 0.476 6.516C0.692 5.892 0.956 5.34 1.268 4.86C1.604 4.38 1.928 3.972 2.24 3.636C3.032 2.82 3.92 2.328 4.904 2.16C5.888 1.968 6.932 1.872 8.036 1.872H11.528C12.056 1.872 12.572 1.872 13.076 1.872C13.58 1.872 14.024 2.004 14.408 2.268C14.792 2.508 15.044 2.988 15.164 3.708C15.26 4.212 15.344 4.98 15.416 6.012C15.512 7.02 15.584 8.148 15.632 9.396C15.704 10.644 15.764 11.88 15.812 13.104C15.86 14.328 15.896 15.384 15.92 16.272C15.92 16.32 15.92 16.464 15.92 16.704C15.944 16.92 15.956 17.196 15.956 17.532C15.956 17.844 15.944 18.204 15.92 18.612C15.92 18.996 15.896 19.368 15.848 19.728C16.352 19.104 16.976 18.336 17.72 17.424C18.488 16.488 19.316 15.48 20.204 14.4C21.092 13.296 21.992 12.192 22.904 11.088C23.816 9.984 24.692 8.928 25.532 7.92C26.372 6.912 27.104 6.036 27.728 5.292C28.376 4.524 28.856 3.948 29.168 3.564C29.72 2.94 30.416 2.508 31.256 2.268C32.096 2.004 32.936 1.872 33.776 1.872H36.008C35.504 2.256 34.952 2.904 34.352 3.816C33.752 4.728 33.164 5.712 32.588 6.768C32.036 7.824 31.544 8.784 31.112 9.648C30.488 10.944 29.852 12.348 29.204 13.86C28.556 15.372 27.98 16.872 27.476 18.36C26.972 19.848 26.6 21.228 26.36 22.5C26.288 22.884 26.252 23.292 26.252 23.724C26.252 24.252 26.336 24.72 26.504 25.128C26.696 25.512 27.032 25.704 27.512 25.704C27.896 25.704 28.364 25.548 28.916 25.236H28.952C29 25.236 29.036 25.284 29.06 25.38C29.084 25.452 29.072 25.512 29.024 25.56C28.568 26.04 27.872 26.448 26.936 26.784C26 27.12 25.112 27.288 24.272 27.288ZM38.4948 26.496C37.3908 27.072 36.2268 27.36 35.0028 27.36C33.9708 27.36 33.0108 27.108 32.1228 26.604C31.2348 26.1 30.6348 25.296 30.3228 24.192C30.1788 23.688 30.1068 23.16 30.1068 22.608C30.1068 21.696 30.2628 20.76 30.5748 19.8C30.9108 18.816 31.3428 17.916 31.8708 17.1C32.6868 15.828 33.7188 14.772 34.9668 13.932C36.2148 13.092 37.5948 12.672 39.1068 12.672C40.2348 12.672 41.1108 12.96 41.7348 13.536C42.3588 14.112 42.6708 14.784 42.6708 15.552C42.6708 16.464 42.3588 17.268 41.7348 17.964C41.1348 18.636 40.3428 19.152 39.3588 19.512C38.8788 19.68 38.3628 19.812 37.8108 19.908C37.2828 19.98 36.7788 20.016 36.2988 20.016C35.3148 20.016 34.5588 19.884 34.0308 19.62C33.5748 20.796 33.3468 21.876 33.3468 22.86C33.3468 23.748 33.5508 24.48 33.9588 25.056C34.3668 25.608 35.0148 25.884 35.9028 25.884C36.6468 25.884 37.3788 25.68 38.0988 25.272C38.8428 24.864 39.5268 24.36 40.1508 23.76C40.7988 23.16 41.3388 22.584 41.7708 22.032C42.1068 21.624 42.3948 21.24 42.6348 20.88C42.8748 20.52 43.1268 20.112 43.3908 19.656C43.6548 19.176 43.9668 18.588 44.3268 17.892C44.4228 17.724 44.5068 17.64 44.5788 17.64C44.7228 17.64 44.7948 17.832 44.7948 18.216C44.7948 18.432 44.7588 18.672 44.6868 18.936C44.6388 19.176 44.5428 19.428 44.3988 19.692C44.0628 20.292 43.6548 20.952 43.1748 21.672C42.7188 22.368 42.2508 23.04 41.7708 23.688C41.3388 24.264 40.8468 24.792 40.2948 25.272C39.7428 25.752 39.1428 26.16 38.4948 26.496ZM35.2188 18.828C35.3388 18.9 35.4708 18.948 35.6148 18.972C35.7588 18.996 35.9028 19.008 36.0468 19.008C36.5268 19.008 37.0068 18.9 37.4868 18.684C37.9668 18.444 38.3748 18.204 38.7108 17.964C39.2628 17.58 39.7308 17.124 40.1148 16.596C40.4988 16.068 40.7148 15.468 40.7628 14.796C40.7868 14.508 40.7148 14.268 40.5468 14.076C40.4028 13.86 40.1388 13.752 39.7548 13.752C39.5628 13.752 39.3228 13.788 39.0348 13.86C38.6508 13.956 38.2668 14.136 37.8828 14.4C37.4988 14.664 37.1268 14.976 36.7668 15.336C36.6468 15.456 36.4308 15.696 36.1188 16.056C35.8308 16.392 35.5548 16.776 35.2908 17.208C35.0268 17.616 34.8948 17.976 34.8948 18.288C34.8948 18.552 35.0028 18.732 35.2188 18.828ZM44.9172 27.216C44.2452 27.216 43.7412 26.976 43.4052 26.496C43.0692 25.992 42.9012 25.32 42.9012 24.48C42.9012 24.36 42.9012 24.24 42.9012 24.12C42.9012 24 42.9132 23.88 42.9372 23.76C43.0572 22.848 43.2612 21.816 43.5492 20.664C43.8612 19.512 44.2212 18.3 44.6292 17.028C44.8692 16.308 45.1692 15.408 45.5292 14.328C45.9132 13.224 46.3572 12.048 46.8612 10.8C47.3652 9.528 47.9172 8.268 48.5172 7.02C49.1412 5.772 49.8252 4.644 50.5692 3.636C51.3132 2.604 52.0932 1.776 52.9092 1.152C53.7492 0.527999 54.6372 0.215999 55.5732 0.215999C56.3412 0.215999 56.8692 0.407999 57.1572 0.791998C57.4452 1.152 57.5892 1.584 57.5892 2.088C57.5892 2.616 57.4932 3.156 57.3012 3.708C57.1092 4.236 56.9172 4.68 56.7252 5.04C56.2932 5.904 55.7292 6.876 55.0332 7.956C54.3372 9.036 53.6052 10.044 52.8372 10.98C52.3812 11.58 51.8172 12.252 51.1452 12.996C50.4732 13.74 49.8372 14.424 49.2372 15.048C48.6612 15.672 48.2412 16.104 47.9772 16.344L47.4012 18C47.2332 18.456 47.0652 18.996 46.8972 19.62C46.7532 20.244 46.6212 20.868 46.5012 21.492C46.4052 22.092 46.3212 22.62 46.2492 23.076C46.2252 23.172 46.2132 23.268 46.2132 23.364C46.2132 23.46 46.2132 23.544 46.2132 23.616C46.2132 24.336 46.4892 24.696 47.0412 24.696C47.3772 24.696 47.7972 24.54 48.3012 24.228C48.7812 23.94 49.2372 23.568 49.6692 23.112C50.1252 22.632 50.4492 22.272 50.6412 22.032C51.1212 21.408 51.5772 20.748 52.0092 20.052C52.4412 19.332 52.8132 18.672 53.1252 18.072C53.2452 17.88 53.3292 17.784 53.3772 17.784C53.5212 17.784 53.5932 17.988 53.5932 18.396C53.5932 18.588 53.5572 18.816 53.4852 19.08C53.4372 19.32 53.3532 19.548 53.2332 19.764C52.8972 20.34 52.5012 20.976 52.0452 21.672C51.5892 22.368 51.1212 23.04 50.6412 23.688C50.2812 24.168 49.7772 24.684 49.1292 25.236C48.4812 25.788 47.7852 26.256 47.0412 26.64C46.2972 27.024 45.5892 27.216 44.9172 27.216ZM48.6972 14.292C49.8972 12.876 51.1092 11.364 52.3332 9.756C53.5812 8.124 54.6132 6.468 55.4292 4.788C55.4772 4.668 55.5852 4.428 55.7532 4.068C55.9212 3.708 56.0772 3.312 56.2212 2.88C56.3652 2.424 56.4372 2.04 56.4372 1.728C56.4372 1.32 56.2812 1.116 55.9692 1.116H55.7172C55.4052 1.116 55.0332 1.332 54.6012 1.764C54.1932 2.196 53.7732 2.772 53.3412 3.492C52.7892 4.404 52.2492 5.46 51.7212 6.66C51.1932 7.836 50.6772 9.084 50.1732 10.404C49.6692 11.724 49.1772 13.02 48.6972 14.292ZM53.0917 34.236C52.4917 34.236 51.8557 34.14 51.1837 33.948C50.5357 33.78 49.9957 33.48 49.5637 33.048C49.1077 32.616 48.8797 32.04 48.8797 31.32C48.8797 30.816 49.0357 30.348 49.3477 29.916C49.6597 29.484 50.0917 29.268 50.6437 29.268C50.9797 29.268 51.2917 29.352 51.5797 29.52C51.8677 29.712 52.0597 29.94 52.1557 30.204C52.1077 30.228 52.0357 30.3 51.9397 30.42C51.8437 30.54 51.7837 30.624 51.7597 30.672C51.5917 31.008 51.5077 31.356 51.5077 31.716C51.5077 32.172 51.6637 32.532 51.9757 32.796C52.3117 33.084 52.7317 33.228 53.2357 33.228C53.8837 33.228 54.5557 32.988 55.2517 32.508C56.0197 31.956 56.6197 31.236 57.0517 30.348C57.5077 29.484 57.8677 28.704 58.1317 28.008L60.1837 22.536C59.7517 23.064 59.2957 23.604 58.8157 24.156C58.3597 24.684 58.0717 25.008 57.9517 25.128C57.0397 26.04 56.2237 26.616 55.5037 26.856C54.7837 27.096 54.1477 27.216 53.5957 27.216C53.0197 27.216 52.5277 26.964 52.1197 26.46C51.7357 25.956 51.5437 25.224 51.5437 24.264C51.5437 23.784 51.6157 23.172 51.7597 22.428C51.9037 21.684 52.1077 20.892 52.3717 20.052C52.6357 19.188 52.9357 18.348 53.2717 17.532C53.6317 16.692 54.0157 15.948 54.4237 15.3C55.0477 14.316 55.7437 13.68 56.5117 13.392C57.2797 13.104 58.2517 12.96 59.4277 12.96C59.5237 12.96 59.5717 13.008 59.5717 13.104C59.5717 13.2 59.4997 13.32 59.3557 13.464C59.0197 13.752 58.6117 14.256 58.1317 14.976C57.6517 15.696 57.1837 16.488 56.7277 17.352C56.2957 18.216 55.9357 19.044 55.6477 19.836C55.4557 20.388 55.2637 21.036 55.0717 21.78C54.9037 22.524 54.8197 23.172 54.8197 23.724C54.8197 24.108 54.8677 24.42 54.9637 24.66C55.0837 24.876 55.2637 24.984 55.5037 24.984C55.8877 24.984 56.4157 24.696 57.0877 24.12C58.0957 23.28 59.0077 22.248 59.8237 21.024C60.6397 19.8 61.3357 18.528 61.9117 17.208C62.2477 16.44 62.5237 15.792 62.7397 15.264C62.9557 14.712 63.1957 14.268 63.4597 13.932C63.7237 13.596 64.0957 13.356 64.5757 13.212C65.0557 13.044 65.7037 12.96 66.5197 12.96H67.9957C67.5397 13.248 67.0837 13.788 66.6277 14.58C66.1717 15.348 65.7397 16.26 65.3317 17.316C65.0197 18.084 64.6957 18.924 64.3597 19.836C64.0477 20.748 63.7237 21.672 63.3877 22.608C63.0997 23.472 62.7877 24.42 62.4517 25.452C62.1157 26.46 61.7317 27.444 61.2997 28.404C60.8677 29.388 60.3637 30.24 59.7877 30.96C58.9717 31.968 57.9757 32.76 56.7997 33.336C55.6237 33.936 54.3877 34.236 53.0917 34.236ZM69.1767 27V1.44H85.9527V3.672H71.6967V13.068H83.7207V15.156H71.6967V27H69.1767ZM86.0044 21.6C86.0044 20.424 86.3404 19.416 87.0124 18.576C87.6844 17.712 88.6084 17.052 89.7844 16.596C90.9844 16.116 92.3644 15.876 93.9244 15.876C94.8364 15.876 95.7844 15.948 96.7684 16.092C97.7524 16.236 98.6284 16.452 99.3964 16.74V15.156C99.3964 13.572 98.9284 12.312 97.9924 11.376C97.0564 10.44 95.7604 9.972 94.1044 9.972C93.0964 9.972 92.1004 10.164 91.1164 10.548C90.1564 10.908 89.1484 11.448 88.0924 12.168L87.1564 10.44C88.3804 9.6 89.5804 8.976 90.7564 8.568C91.9324 8.136 93.1324 7.92 94.3564 7.92C96.6604 7.92 98.4844 8.58 99.8284 9.9C101.172 11.22 101.844 13.044 101.844 15.372V24.048C101.844 24.384 101.916 24.636 102.06 24.804C102.204 24.948 102.432 25.032 102.744 25.056V27C102.48 27.024 102.252 27.048 102.06 27.072C101.868 27.096 101.724 27.096 101.628 27.072C101.028 27.048 100.572 26.856 100.26 26.496C99.9484 26.136 99.7804 25.752 99.7564 25.344L99.7204 23.976C98.8804 25.056 97.7884 25.896 96.4444 26.496C95.1004 27.072 93.7324 27.36 92.3404 27.36C91.1404 27.36 90.0484 27.108 89.0644 26.604C88.1044 26.076 87.3484 25.38 86.7964 24.516C86.2684 23.628 86.0044 22.656 86.0044 21.6ZM98.5684 23.04C98.8324 22.704 99.0364 22.38 99.1804 22.068C99.3244 21.756 99.3964 21.48 99.3964 21.24V18.504C98.5804 18.192 97.7284 17.952 96.8404 17.784C95.9764 17.616 95.1004 17.532 94.2124 17.532C92.4604 17.532 91.0444 17.88 89.9644 18.576C88.8844 19.272 88.3444 20.22 88.3444 21.42C88.3444 22.116 88.5244 22.776 88.8844 23.4C89.2444 24 89.7724 24.504 90.4684 24.912C91.1644 25.296 91.9804 25.488 92.9164 25.488C94.0924 25.488 95.1844 25.26 96.1924 24.804C97.2244 24.348 98.0164 23.76 98.5684 23.04ZM113.29 27.36C111.754 27.36 110.326 27.108 109.006 26.604C107.686 26.1 106.546 25.332 105.586 24.3L106.594 22.572C107.65 23.556 108.706 24.276 109.762 24.732C110.842 25.164 111.982 25.38 113.182 25.38C114.646 25.38 115.834 25.092 116.746 24.516C117.658 23.916 118.114 23.064 118.114 21.96C118.114 21.216 117.886 20.652 117.43 20.268C116.998 19.86 116.362 19.536 115.522 19.296C114.706 19.032 113.722 18.756 112.57 18.468C111.274 18.108 110.182 17.736 109.294 17.352C108.43 16.944 107.77 16.44 107.314 15.84C106.882 15.216 106.666 14.412 106.666 13.428C106.666 12.204 106.966 11.196 107.566 10.404C108.19 9.588 109.03 8.976 110.086 8.568C111.166 8.136 112.366 7.92 113.686 7.92C115.126 7.92 116.398 8.148 117.502 8.604C118.606 9.06 119.506 9.696 120.202 10.512L119.014 12.168C118.342 11.4 117.538 10.836 116.602 10.476C115.69 10.092 114.67 9.9 113.542 9.9C112.774 9.9 112.042 10.008 111.346 10.224C110.65 10.416 110.074 10.752 109.618 11.232C109.186 11.688 108.97 12.324 108.97 13.14C108.97 13.812 109.138 14.34 109.474 14.724C109.81 15.084 110.314 15.396 110.986 15.66C111.658 15.9 112.486 16.164 113.47 16.452C114.886 16.836 116.122 17.232 117.178 17.64C118.234 18.024 119.05 18.528 119.626 19.152C120.202 19.776 120.49 20.652 120.49 21.78C120.49 23.532 119.83 24.9 118.51 25.884C117.19 26.868 115.45 27.36 113.29 27.36ZM140.304 27H137.856V16.524C137.856 14.412 137.484 12.828 136.74 11.772C135.996 10.692 134.928 10.152 133.536 10.152C132.624 10.152 131.712 10.392 130.8 10.872C129.912 11.328 129.12 11.964 128.424 12.78C127.752 13.572 127.272 14.484 126.984 15.516V27H124.536V0.719999H126.984V12.492C127.728 11.1 128.76 9.996 130.08 9.18C131.424 8.34 132.852 7.92 134.364 7.92C135.444 7.92 136.356 8.112 137.1 8.496C137.868 8.88 138.48 9.444 138.936 10.188C139.416 10.908 139.764 11.76 139.98 12.744C140.196 13.704 140.304 14.796 140.304 16.02V27ZM145.524 27V8.244H147.972V27H145.524ZM145.524 4.32V0.719999H147.972V4.32H145.524ZM161.356 27.36C160.012 27.36 158.764 27.108 157.612 26.604C156.484 26.076 155.5 25.368 154.66 24.48C153.844 23.568 153.208 22.536 152.752 21.384C152.296 20.208 152.068 18.972 152.068 17.676C152.068 16.332 152.296 15.084 152.752 13.932C153.208 12.756 153.856 11.724 154.696 10.836C155.536 9.924 156.52 9.216 157.648 8.712C158.8 8.184 160.048 7.92 161.392 7.92C162.736 7.92 163.972 8.184 165.1 8.712C166.228 9.216 167.212 9.924 168.052 10.836C168.892 11.724 169.54 12.756 169.996 13.932C170.452 15.084 170.68 16.332 170.68 17.676C170.68 18.972 170.452 20.208 169.996 21.384C169.54 22.536 168.892 23.568 168.052 24.48C167.236 25.368 166.252 26.076 165.1 26.604C163.972 27.108 162.724 27.36 161.356 27.36ZM154.552 17.712C154.552 19.104 154.852 20.376 155.452 21.528C156.076 22.656 156.904 23.556 157.936 24.228C158.968 24.876 160.108 25.2 161.356 25.2C162.604 25.2 163.744 24.864 164.776 24.192C165.808 23.52 166.636 22.608 167.26 21.456C167.884 20.28 168.196 19.008 168.196 17.64C168.196 16.248 167.884 14.976 167.26 13.824C166.636 12.672 165.808 11.76 164.776 11.088C163.744 10.416 162.604 10.08 161.356 10.08C160.108 10.08 158.968 10.428 157.936 11.124C156.928 11.82 156.112 12.744 155.488 13.896C154.864 15.024 154.552 16.296 154.552 17.712ZM190.542 27H188.094V16.524C188.094 14.316 187.77 12.708 187.122 11.7C186.474 10.668 185.454 10.152 184.062 10.152C183.102 10.152 182.154 10.392 181.218 10.872C180.282 11.328 179.454 11.964 178.734 12.78C178.038 13.572 177.534 14.484 177.222 15.516V27H174.774V8.244H177.006V12.492C177.51 11.58 178.17 10.788 178.986 10.116C179.802 9.42 180.726 8.88 181.758 8.496C182.79 8.112 183.858 7.92 184.962 7.92C185.994 7.92 186.87 8.112 187.59 8.496C188.31 8.88 188.886 9.432 189.318 10.152C189.75 10.848 190.062 11.7 190.254 12.708C190.446 13.692 190.542 14.796 190.542 16.02V27Z" fill="black"/>
</svg>
